<svg data-v-423bf9ae="" xmlns="http://www.w3.org/2000/svg" viewBox="0 0 258.4821472590676 60" class="font"><!----><!----><defs data-v-423bf9ae=""><linearGradient data-v-423bf9ae="" gradientTransform="rotate(25)" id="8a0bbb27-8813-4aa4-ac90-f717fc414801" x1="0%" y1="0%" x2="100%" y2="0%"><stop data-v-423bf9ae="" offset="0%" style="stop-color: rgb(0, 21, 214); stop-opacity: 1;"></stop><stop data-v-423bf9ae="" offset="100%" style="stop-color: rgb(9, 137, 251); stop-opacity: 1;"></stop></linearGradient></defs><g data-v-423bf9ae="" id="91898c87-0283-4581-876c-bb4dac1c9270" fill="url(#8a0bbb27-8813-4aa4-ac90-f717fc414801)" transform="matrix(5.357142948374458,0,0,5.357142948374458,-3.749996981298466,-5.62499960192612)"><path d="M0.70 12.02L0.70 12.02L0.70 1.27L0.70 1.27Q0.70 1.05 0.94 1.05L0.94 1.05L2.38 1.05L2.38 1.05Q2.60 1.05 2.60 1.27L2.60 1.27L2.60 5.73L4.40 5.73L4.40 1.27L4.40 1.27Q4.40 1.05 4.62 1.05L4.62 1.05L6.06 1.05L6.06 1.05Q6.30 1.05 6.30 1.27L6.30 1.27L6.30 12.02L6.30 12.02Q6.30 12.25 6.06 12.25L6.06 12.25L4.62 12.25L4.62 12.25Q4.52 12.25 4.46 12.19L4.46 12.19L4.46 12.19Q4.40 12.13 4.40 12.02L4.40 12.02L4.40 7.57L2.60 7.57L2.60 12.02L2.60 12.02Q2.60 12.13 2.54 12.19L2.54 12.19L2.54 12.19Q2.48 12.25 2.38 12.25L2.38 12.25L0.94 12.25L0.94 12.25Q0.70 12.25 0.70 12.02ZM7.43 12.01L7.43 12.01L9.75 2.65L9.75 2.65Q9.80 2.45 9.99 2.45L9.99 2.45L11.94 2.45L11.94 2.45Q12.14 2.45 12.18 2.65L12.18 2.65L14.51 12.01L14.51 12.01Q14.52 12.06 14.52 12.09L14.52 12.09L14.52 12.09Q14.52 12.25 14.31 12.25L14.31 12.25L12.95 12.25L12.95 12.25Q12.77 12.25 12.73 12.05L12.73 12.05L12.28 10.29L9.65 10.29L9.21 12.05L9.21 12.05Q9.17 12.25 8.99 12.25L8.99 12.25L7.62 12.25L7.62 12.25Q7.42 12.25 7.42 12.10L7.42 12.10L7.42 12.10Q7.42 12.06 7.43 12.01ZM10.96 4.86L10.08 8.67L11.85 8.67L10.96 4.86ZM15.63 12.02L15.63 12.02L15.63 2.67L15.63 2.67Q15.63 2.45 15.86 2.45L15.86 2.45L19.22 2.45L19.22 2.45Q20.21 2.45 20.73 2.96L20.73 2.96L20.73 2.96Q21.25 3.47 21.25 4.46L21.25 4.46L21.25 6.36L21.25 6.36Q21.25 6.74 21.00 7.01L21.00 7.01L21.00 7.01Q20.75 7.29 20.37 7.35L20.37 7.35L20.37 7.38L20.37 7.38Q20.75 7.44 21.00 7.71L21.00 7.71L21.00 7.71Q21.25 7.99 21.25 8.37L21.25 8.37L21.25 10.23L21.25 10.23Q21.25 11.22 20.73 11.74L20.73 11.74L20.73 11.74Q20.21 12.25 19.22 12.25L19.22 12.25L15.86 12.25L15.86 12.25Q15.76 12.25 15.70 12.19L15.70 12.19L15.70 12.19Q15.63 12.13 15.63 12.02ZM17.37 8.29L17.37 10.49L18.92 10.49L18.92 10.49Q19.48 10.49 19.48 9.93L19.48 9.93L19.48 8.85L19.48 8.85Q19.48 8.29 18.92 8.29L18.92 8.29L17.37 8.29ZM17.37 4.21L17.37 6.44L18.92 6.44L18.92 6.44Q19.19 6.44 19.33 6.30L19.33 6.30L19.33 6.30Q19.48 6.15 19.48 5.89L19.48 5.89L19.48 4.77L19.48 4.77Q19.48 4.21 18.92 4.21L18.92 4.21L17.37 4.21ZM22.65 2.67L22.65 12.02L22.65 12.02Q22.65 12.25 22.87 12.25L22.87 12.25L24.33 12.25L24.33 12.25Q24.43 12.25 24.49 12.19L24.49 12.19L24.49 12.19Q24.55 12.13 24.55 12.02L24.55 12.02L24.55 2.67L24.55 2.67Q24.55 2.57 24.49 2.51L24.49 2.51L24.49 2.51Q24.43 2.45 24.33 2.45L24.33 2.45L22.87 2.45L22.87 2.45Q22.65 2.45 22.65 2.67L22.65 2.67ZM25.53 2.67L25.53 4.07L25.53 4.07Q25.53 4.18 25.59 4.24L25.59 4.24L25.59 4.24Q25.66 4.30 25.76 4.30L25.76 4.30L27.38 4.30L27.38 12.02L27.38 12.02Q27.38 12.25 27.61 12.25L27.61 12.25L29.07 12.25L29.07 12.25Q29.29 12.25 29.29 12.02L29.29 12.02L29.29 4.30L30.91 4.30L30.91 4.30Q31.14 4.30 31.14 4.07L31.14 4.07L31.14 2.67L31.14 2.67Q31.14 2.45 30.91 2.45L30.91 2.45L25.76 2.45L25.76 2.45Q25.66 2.45 25.59 2.51L25.59 2.51L25.59 2.51Q25.53 2.57 25.53 2.67L25.53 2.67ZM32.12 2.67L32.12 12.02L32.12 12.02Q32.12 12.25 32.34 12.25L32.34 12.25L33.80 12.25L33.80 12.25Q33.90 12.25 33.96 12.19L33.96 12.19L33.96 12.19Q34.02 12.13 34.02 12.02L34.02 12.02L34.02 2.67L34.02 2.67Q34.02 2.57 33.96 2.51L33.96 2.51L33.96 2.51Q33.90 2.45 33.80 2.45L33.80 2.45L32.34 2.45L32.34 2.45Q32.12 2.45 32.12 2.67L32.12 2.67ZM35.42 12.02L35.42 12.02L35.42 2.67L35.42 2.67Q35.42 2.45 35.64 2.45L35.64 2.45L40.80 2.45L40.80 2.45Q40.90 2.45 40.96 2.51L40.96 2.51L40.96 2.51Q41.02 2.57 41.02 2.67L41.02 2.67L41.02 4.07L41.02 4.07Q41.02 4.18 40.96 4.24L40.96 4.24L40.96 4.24Q40.90 4.30 40.80 4.30L40.80 4.30L37.32 4.30L37.32 6.69L39.96 6.69L39.96 6.69Q40.06 6.69 40.12 6.75L40.12 6.75L40.12 6.75Q40.18 6.82 40.18 6.92L40.18 6.92L40.18 8.32L40.18 8.32Q40.18 8.54 39.96 8.54L39.96 8.54L37.32 8.54L37.32 12.02L37.32 12.02Q37.32 12.13 37.26 12.19L37.26 12.19L37.26 12.19Q37.20 12.25 37.10 12.25L37.10 12.25L35.64 12.25L35.64 12.25Q35.42 12.25 35.42 12.02ZM44.45 8.58L41.89 2.78L41.89 2.78Q41.86 2.71 41.86 2.65L41.86 2.65L41.86 2.65Q41.86 2.59 41.89 2.54L41.89 2.54L41.89 2.54Q41.95 2.45 42.11 2.45L42.11 2.45L43.51 2.45L43.51 2.45Q43.74 2.45 43.83 2.67L43.83 2.67L45.40 6.28L46.97 2.67L46.97 2.67Q47.06 2.45 47.29 2.45L47.29 2.45L48.69 2.45L48.69 2.45Q48.85 2.45 48.91 2.54L48.91 2.54L48.91 2.54Q48.95 2.59 48.95 2.65L48.95 2.65L48.95 2.65Q48.95 2.71 48.92 2.78L48.92 2.78L46.35 8.58L46.35 11.97L46.35 11.97Q46.35 12.25 46.07 12.25L46.07 12.25L44.73 12.25L44.73 12.25Q44.45 12.25 44.45 11.97L44.45 11.97L44.45 8.58Z"></path></g><!----><!----></svg>
